<?xml version="1.0" encoding="utf-8"?>
<!-- Generator: Adobe Illustrator 27.8.1, SVG Export Plug-In . SVG Version: 6.00 Build 0)  -->
<svg version="1.1" id="图层_1" xmlns="http://www.w3.org/2000/svg" xmlns:xlink="http://www.w3.org/1999/xlink" x="0px" y="0px"
	 viewBox="0 0 595.28 127.81" style="enable-background:new 0 0 595.28 127.81;" xml:space="preserve">
<style type="text/css">
	.st0{fill:url(#SVGID_1_);}
</style>
<linearGradient id="SVGID_1_" gradientUnits="userSpaceOnUse" x1="58.8302" y1="67.8551" x2="550.1901" y2="67.8551">
	<stop  offset="0" style="stop-color:#883D8A"/>
	<stop  offset="1" style="stop-color:#1F418F"/>
</linearGradient>
<path class="st0" d="M484.5,72.58c0.14,0,0.25,0.11,0.22,0.21l-0.51,2.03c-0.57,2.5-1.88,3.67-3.36,3.52l0.37-1.1
	c0.98-0.39,1.27-1.02,1.58-2.38h-0.9c-0.14,0-0.25-0.11-0.22-0.21l0.48-1.95c0.02-0.07,0.09-0.11,0.18-0.11H484.5z M253.39,71.99
	c-0.14,0-0.25,0.06-0.27,0.16l-0.66,2.65c-0.04,0.14,0.15,0.29,0.36,0.29h1.42c-0.42,1.85-0.86,2.7-2.38,3.23l-0.53,1.49
	c2.35,0.22,4.35-1.38,5.13-4.77l0.71-2.75c0.04-0.14-0.15-0.29-0.36-0.29H253.39z M147.21,57.62c-0.08,0-0.14,0.05-0.16,0.12
	l-1.11,4.34h-2.04c-0.08,0-0.14,0.05-0.16,0.11l-0.48,1.85c-0.03,0.11,0.07,0.23,0.2,0.23h1.93l-1.4,5.37
	c-0.2,0.82-0.49,1.87-0.48,2.74c0.03,2.58,2.99,2.56,3.71,2.56c0.38,0,0.72-0.02,1.01-0.04c0.59-0.05,1.06-0.41,1.19-0.93l0.44-1.71
	c-0.33,0.03-0.62,0.05-0.95,0.05c-0.03,0-1.13,0.08-1.52-0.46c-0.09-0.1-0.18-0.31-0.18-0.59c0-0.38,0.08-0.74,0.28-1.48l1.43-5.5
	h1.51c0.73,0,1.33-0.43,1.5-1.07l0.29-1.12h-2.73l1.08-4.22c0.03-0.11-0.08-0.23-0.2-0.23H147.21z M156.85,69.5
	c0,1.61,0.98,2.94,3.02,2.94c0.33,0,1.04-0.03,1.81-0.38c2.02-0.95,2.59-3.04,2.71-3.53c0.06-0.28,0.18-0.74,0.18-1.46
	c0-0.15,0-0.72-0.2-1.23c-0.24-0.59-0.95-1.61-2.79-1.61c-1.25,0-2.32,0.41-3.09,1.23C157.51,66.46,156.85,68.15,156.85,69.5
	 M159.03,62.08c1.25-0.36,2.32-0.41,2.82-0.41c0.89,0,1.72,0.13,2.55,0.38c3.5,1.1,3.73,3.91,3.73,4.94c0,0.89-0.21,1.76-0.3,2.05
	c-0.42,1.61-1.16,3.02-2.59,4.17c-2.17,1.77-4.61,1.87-5.67,1.87c-0.62,0-2.61-0.03-4.19-1.15c-1.42-1.05-2.13-2.76-2.13-4.32
	c0-2.25,1.23-4.86,3.28-6.34C157.48,62.57,158.64,62.21,159.03,62.08 M74.92,56.39c-0.08,0-0.14,0.05-0.16,0.12l-1.92,7.43h-7.2
	l1.89-7.32c0.03-0.11-0.07-0.23-0.2-0.23H63.7c-0.08,0-0.14,0.05-0.16,0.12l-4.7,18.2c-0.03,0.11,0.07,0.23,0.2,0.23h3.63
	c0.08,0,0.14-0.05,0.16-0.12l2.23-8.68h7.2l-2.2,8.57c-0.03,0.11,0.07,0.23,0.2,0.23h3.63c0.08,0,0.14-0.05,0.16-0.12l4.7-18.2
	c0.03-0.11-0.07-0.23-0.2-0.23H74.92z M87.69,63.75c-2.3,0-4.18,2.28-4.6,4.65c3.52-0.07,6.59-0.69,6.59-3.04
	C89.68,64.3,89.03,63.75,87.69,63.75 M78.95,70.74c0.01-4.3,2.85-8.72,8.94-8.72c3.48,0,5.62,1.09,5.62,3.49
	c-0.01,3.63-6.4,4.63-10.65,4.68c-0.12,2.28,0.91,2.85,2.94,2.85c1.91,0,5.02-0.78,5.02-0.78l-0.45,1.51
	c-0.13,0.45-0.51,0.78-1,0.88c-0.9,0.18-2.47,0.44-4.15,0.44C82.5,75.08,78.94,74.58,78.95,70.74 M117.1,64.4l0.66-1.93
	c0.04-0.11-0.07-0.24-0.2-0.24h-3.15c-0.08,0-0.14,0.05-0.16,0.11l-3.16,12.37c-0.03,0.11,0.08,0.23,0.2,0.23h3.2
	c0.08,0,0.14-0.05,0.16-0.12l1.37-5.46c0.31-1.25,0.65-2.43,1.85-3.3c1.47-1.05,3.22-0.87,3.82-0.82l0.81-3.17
	c-0.18,0-0.39-0.03-0.56-0.03C120.54,62.04,118.94,62.38,117.1,64.4 M128.21,57.62c-0.08,0-0.14,0.05-0.16,0.12l-1.11,4.34h-2.04
	c-0.08,0-0.14,0.05-0.16,0.11l-0.48,1.85c-0.03,0.11,0.07,0.23,0.2,0.23h1.93l-1.4,5.37c-0.2,0.82-0.49,1.87-0.48,2.74
	c0.03,2.58,3,2.56,3.71,2.56l0.89,0c0.64,0,1.16-0.38,1.31-0.94l0.45-1.75c-0.33,0.03-0.62,0.05-0.95,0.05
	c-0.03,0-1.13,0.08-1.52-0.46c-0.09-0.1-0.18-0.31-0.18-0.59c0-0.38,0.08-0.74,0.28-1.48l1.43-5.5h1.51c0.73,0,1.33-0.43,1.5-1.07
	l0.23-0.89c0.03-0.11-0.08-0.23-0.2-0.23h-2.47l1.08-4.22c0.03-0.11-0.07-0.23-0.2-0.23H128.21z M98.67,70.69
	c0,1.66,0.67,2.34,1.7,2.34c2.1,0,4.1-2.75,4.1-2.75l1.51-5.95c0,0-0.71-0.58-2.38-0.58C100,63.75,98.67,68.33,98.67,70.69
	 M94.97,70.67c0.01-3.83,2.36-8.99,8.45-8.99c1.54,0,2.5,0.4,3.02,0.7l0.12-0.46l3.51,0c0.13,0,0.23,0.12,0.2,0.23l-2.7,10.44
	c-0.07,0.37-0.11,0.68-0.11,1.02c0,0.36,0.05,0.8,0.13,1.13c0.02,0.1-0.05,0.2-0.16,0.2h-3.49c-0.02-0.21-0.05-0.51-0.05-0.78
	c0-0.61,0.18-1.1,0.18-1.1s-1.5,2.02-4.52,2.02C97.09,75.08,94.96,74,94.97,70.67 M192.21,56.39c-0.08,0-0.14,0.05-0.16,0.12
	l-1.92,7.43h-7.2l1.89-7.32c0.03-0.11-0.07-0.23-0.2-0.23h-3.63c-0.08,0-0.14,0.05-0.16,0.12l-4.7,18.2
	c-0.03,0.11,0.07,0.23,0.2,0.23h3.63c0.08,0,0.14-0.05,0.16-0.12l2.23-8.68h7.2l-2.2,8.57c-0.03,0.11,0.07,0.23,0.2,0.23h3.63
	c0.08,0,0.14-0.05,0.16-0.12l4.7-18.2c0.03-0.11-0.07-0.23-0.2-0.23H192.21z M204.98,63.75c-2.3,0-4.18,2.28-4.6,4.65
	c3.52-0.07,6.59-0.69,6.59-3.04C206.97,64.3,206.32,63.75,204.98,63.75 M196.24,70.74c0.01-4.3,2.85-8.72,8.94-8.72
	c3.48,0,5.63,1.09,5.62,3.49c-0.01,3.63-6.4,4.63-10.65,4.68c-0.12,2.28,0.91,2.85,2.94,2.85c1.91,0,5.02-0.78,5.02-0.78l-0.45,1.51
	c-0.13,0.45-0.51,0.78-1,0.88c-0.9,0.18-2.47,0.44-4.15,0.44C199.79,75.08,196.23,74.58,196.24,70.74 M234.39,64.4l0.66-1.93
	c0.04-0.11-0.07-0.24-0.2-0.24h-3.15c-0.08,0-0.14,0.05-0.16,0.11l-3.16,12.37c-0.03,0.11,0.08,0.23,0.2,0.23h3.2
	c0.08,0,0.14-0.05,0.16-0.12l1.37-5.46c0.31-1.25,0.64-2.43,1.85-3.3c1.47-1.05,3.22-0.87,3.82-0.82l0.81-3.17
	c-0.18,0-0.39-0.03-0.56-0.03C237.82,62.04,236.23,62.38,234.39,64.4 M245.5,57.62c-0.08,0-0.14,0.05-0.16,0.12l-1.11,4.34h-2.04
	c-0.08,0-0.14,0.05-0.16,0.11l-0.48,1.85c-0.03,0.11,0.07,0.23,0.2,0.23h1.93l-1.4,5.37c-0.2,0.82-0.49,1.87-0.48,2.74
	c0.03,2.58,3,2.56,3.71,2.56l0.88,0c0.64,0,1.16-0.38,1.31-0.94l0.45-1.75c-0.33,0.03-0.62,0.05-0.95,0.05
	c-0.03,0-1.13,0.08-1.52-0.46c-0.09-0.1-0.18-0.31-0.18-0.59c0-0.38,0.08-0.74,0.28-1.48l1.43-5.5h1.51c0.73,0,1.33-0.43,1.5-1.07
	l0.23-0.89c0.03-0.11-0.08-0.23-0.2-0.23h-2.47l1.08-4.22c0.03-0.11-0.08-0.23-0.2-0.23H245.5z M215.96,70.69
	c0,1.66,0.67,2.34,1.7,2.34c2.1,0,4.1-2.75,4.1-2.75l1.51-5.95c0,0-0.71-0.58-2.38-0.58C217.28,63.75,215.96,68.33,215.96,70.69
	 M212.25,70.67c0.01-3.83,2.36-8.99,8.45-8.99c1.54,0,2.5,0.4,3.02,0.7l0.12-0.46l3.51,0c0.13,0,0.23,0.12,0.2,0.23l-2.7,10.44
	c-0.07,0.37-0.11,0.68-0.11,1.02c0,0.36,0.05,0.8,0.13,1.13c0.03,0.1-0.05,0.2-0.16,0.2h-3.49c-0.02-0.21-0.05-0.51-0.05-0.78
	c0-0.61,0.18-1.1,0.18-1.1s-1.5,2.02-4.52,2.02C214.38,75.08,212.25,74,212.25,70.67 M374.55,63.75c-2.3,0-4.18,2.28-4.6,4.65
	c3.52-0.07,6.59-0.69,6.59-3.04C376.54,64.3,375.89,63.75,374.55,63.75 M365.81,70.74c0.01-4.3,2.85-8.72,8.94-8.72
	c3.48,0,5.62,1.09,5.62,3.49c-0.01,3.63-6.4,4.63-10.65,4.68c-0.12,2.28,0.91,2.85,2.94,2.85c1.91,0,5.02-0.78,5.02-0.78l-0.45,1.51
	c-0.13,0.45-0.51,0.78-1,0.88c-0.9,0.18-2.47,0.44-4.15,0.44C369.36,75.08,365.8,74.58,365.81,70.74 M322.73,62.14
	c-0.08,0-0.14,0.05-0.16,0.11l-1.31,5.15c-0.31,1.2-0.64,2.66-1.51,3.71c-0.93,1.15-2.18,1.33-2.8,1.33c-1.28,0-1.85-0.69-1.98-1.1
	c-0.09-0.23-0.1-0.36-0.1-0.49c-0.01-0.69,0.3-1.87,0.47-2.51l1.51-5.98c0.03-0.11-0.08-0.23-0.2-0.23h-3.17
	c-0.08,0-0.14,0.05-0.16,0.11l-1.65,6.46c-0.2,0.79-0.53,2.2-0.52,3.04c0.04,2.25,2.1,3.33,4.51,3.33c2.35,0,3.72-1.07,4.34-1.59
	l-0.27,1.21c-0.03,0.11,0.08,0.23,0.2,0.23h2.9c0.08,0,0.14-0.05,0.16-0.11l3.12-12.46c0.03-0.11-0.08-0.23-0.2-0.23H322.73z
	 M349.58,62.14c-0.08,0-0.14,0.05-0.16,0.11l-1.31,5.15c-0.31,1.2-0.64,2.66-1.52,3.71c-0.93,1.15-2.18,1.33-2.8,1.33
	c-1.28,0-1.85-0.69-1.98-1.1c-0.09-0.23-0.1-0.36-0.1-0.49c-0.01-0.69,0.3-1.87,0.47-2.51l1.51-5.98c0.03-0.11-0.08-0.23-0.2-0.23
	h-3.17c-0.08,0-0.14,0.05-0.16,0.11l-1.65,6.46c-0.2,0.79-0.53,2.2-0.52,3.04c0.03,2.25,2.1,3.33,4.51,3.33
	c2.35,0,3.72-1.07,4.34-1.59l-0.27,1.21c-0.03,0.11,0.08,0.23,0.2,0.23h2.9c0.08,0,0.14-0.05,0.16-0.11l3.12-12.46
	c0.03-0.11-0.08-0.23-0.2-0.23H349.58z M359.88,64.39l0.66-1.93c0.04-0.11-0.07-0.24-0.2-0.24h-3.15c-0.08,0-0.14,0.05-0.16,0.11
	l-3.16,12.37c-0.03,0.11,0.08,0.23,0.2,0.23h3.2c0.08,0,0.14-0.05,0.16-0.12l1.37-5.46c0.31-1.25,0.65-2.43,1.85-3.3
	c1.47-1.05,3.22-0.87,3.82-0.82l0.81-3.17c-0.18,0-0.39-0.02-0.57-0.02C363.32,62.04,361.72,62.37,359.88,64.39 M277.99,67.56
	c0.05,0,0.11,0,0.16,0c1.37,0,2.67-0.88,2.9-1.98c0.11-0.53-0.04-1.02-0.42-1.4c-0.36-0.35-0.89-0.56-1.5-0.59
	c-0.05,0-0.11,0-0.16,0c-1.36,0-2.67,0.88-2.9,1.98c-0.11,0.53,0.04,1.02,0.42,1.4C276.85,67.32,277.38,67.53,277.99,67.56
	 M266.61,64.85c1.06-5.06,6.93-8.96,13.29-8.96c0.26,0,0.52,0.01,0.78,0.02c5.3,0.27,9.39,2.93,10.18,6.64
	c0.59,2.75-0.45,4.63-1.12,5.51c-1.49,1.94-3.33,2.42-4.8,2.42c-0.22,0-0.43-0.01-0.63-0.03c-1.49-0.14-2.36-0.66-2.86-1.16
	c-0.97,0.5-2.11,0.78-3.31,0.78c-0.12,0-0.25,0-0.38-0.01c-1.53-0.08-2.88-0.62-3.81-1.53c-0.96-0.93-1.34-2.13-1.08-3.37
	c0.51-2.45,3.35-4.24,6.45-4.09c1.38,0.07,2.11,0.33,2.98,0.9l0.17-0.66h1.41c0.76,0,1.38,0.7,1.2,1.38l-1.02,3.96
	c-0.13,0.52-0.4,1.22,0.62,1.29c0.6,0.04,1.41,0.03,2.28-1.19c0.34-0.48,1.14-1.77,0.71-3.8c-0.55-2.57-3.38-4.35-7.21-4.54
	c-5.06-0.25-9.84,2.81-10.68,6.83c-0.58,2.78,0.94,5.41,3.86,6.7c0.08,0.03,0.16,0.07,0.24,0.1c1.09,0.44,2.4,0.67,3.79,0.67
	c0,0,11.43-0.01,16.49-0.05c0.99-0.01,1.79-0.52,1.98-1.26l3.86-14.91c0.02-0.07,0.08-0.12,0.16-0.12h11.33
	c0.14,0,0.24,0.14,0.19,0.25l-0.59,1.31c-0.24,0.54-0.79,0.87-1.44,0.87h-6.22l-1.32,5.11h6.59c0.13,0,0.23,0.12,0.2,0.23
	l-0.22,0.87c-0.16,0.66-0.78,1.1-1.52,1.1h-5.64l-1.85,7.2c-0.24,0.95-1.28,1.6-2.54,1.6l-19.46-0.01c-1.44,0-3.73-0.02-5.28-0.64
	c-0.11-0.05-0.23-0.09-0.34-0.14C267.95,72.33,265.81,68.68,266.61,64.85 M331.79,57.62c-0.08,0-0.14,0.05-0.16,0.12l-1.11,4.34
	h-2.04c-0.08,0-0.14,0.05-0.16,0.11l-0.48,1.85c-0.03,0.11,0.08,0.23,0.2,0.23h1.93l-1.4,5.37c-0.2,0.82-0.49,1.87-0.48,2.74
	c0.03,2.58,3,2.56,3.71,2.56l0.89,0c0.64,0,1.16-0.38,1.31-0.94l0.45-1.75c-0.33,0.03-0.62,0.05-0.95,0.05
	c-0.03,0-1.13,0.08-1.52-0.46c-0.09-0.1-0.18-0.31-0.19-0.59c0-0.38,0.08-0.74,0.28-1.48l1.43-5.5h1.51c0.73,0,1.33-0.43,1.5-1.07
	l0.23-0.89c0.03-0.11-0.07-0.23-0.2-0.23h-2.47l1.08-4.22c0.03-0.11-0.07-0.23-0.2-0.23H331.79z M541.5,56.39
	c-0.17,0-0.33,0.12-0.37,0.29l-0.43,1.76h-7.57c-0.17,0-0.33,0.12-0.37,0.29l-0.36,1.47c-0.04,0.17,0.08,0.34,0.26,0.34h7.53
	l-1.08,4.39h-7.68c-0.17,0-0.32,0.12-0.37,0.29l-0.36,1.47c-0.04,0.17,0.08,0.34,0.26,0.34h7.64l-1.92,7.78
	c-0.04,0.17,0.09,0.34,0.26,0.34h1.5c0.17,0,0.33-0.12,0.37-0.29l1.93-7.83h7.39c0.72,0,1.33-0.48,1.5-1.19l0.23-0.91h-8.6
	l1.08-4.39h6.14c0.72,0,1.33-0.49,1.5-1.19l0.23-0.91h-7.35l0.42-1.71c0.04-0.17-0.08-0.34-0.26-0.34H541.5z M544.37,67.94
	c-0.18,0-0.33,0.12-0.37,0.3l-1.41,6.16c-0.04,0.17,0.09,0.33,0.26,0.33h3.91c0.72,0,1.33-0.49,1.51-1.2l0.22-0.9h-3.31l0.96-4.36
	c0.04-0.17-0.09-0.33-0.26-0.33H544.37z M520.56,56.39c-0.17,0-0.33,0.12-0.37,0.29l-0.42,1.73h-6.91c-0.17,0-0.33,0.12-0.37,0.29
	l-0.36,1.47c-0.04,0.17,0.08,0.34,0.26,0.34h6.87l-0.91,3.69h-7.86c-0.17,0-0.33,0.12-0.37,0.29l-0.36,1.47
	c-0.04,0.17,0.08,0.34,0.26,0.34h7.82l-2.1,8.52c-0.04,0.17,0.08,0.34,0.26,0.34h1.5c0.17,0,0.33-0.12,0.37-0.29l2.11-8.56h7.29
	c0.72,0,1.33-0.48,1.5-1.19l0.23-0.91h-8.5l0.91-3.69h6.14c0.72,0,1.33-0.49,1.5-1.19l0.23-0.91h-7.35l0.41-1.69
	c0.04-0.17-0.08-0.34-0.26-0.34H520.56z M533.51,67.94c-0.12,0-0.24,0.1-0.26,0.23c-0.47,2.56-2.82,4.61-5.35,4.61
	c-2.5,0-4.28-2.01-4.08-4.53c0.01-0.17-0.1-0.3-0.26-0.3h-1.52c-0.13,0-0.25,0.11-0.27,0.24c-0.39,3.71,2.19,6.7,5.84,6.7
	c4.06,0,7.01-2.94,7.68-6.62c0.03-0.17-0.09-0.32-0.26-0.32H533.51z M429,56.39c-0.17,0-0.33,0.12-0.37,0.29l-2.9,11.72
	c-0.04,0.17,0.08,0.34,0.26,0.34h1.66c0.17,0,0.33-0.12,0.37-0.29l2.9-11.72c0.04-0.17-0.08-0.34-0.26-0.34H429z M433.23,58.08
	c-0.17,0-0.33,0.12-0.37,0.29l-2.41,9.73c-0.04,0.17,0.08,0.34,0.26,0.34h4.44c0.71,0,1.32-0.48,1.49-1.18l0.27-1.08h-3.68
	l1.92-7.77c0.04-0.17-0.08-0.34-0.26-0.34H433.23z M398.42,58.08c-0.17,0-0.33,0.12-0.37,0.29l-2.52,10.18h-0.66
	c-0.17,0-0.33,0.12-0.37,0.29l-0.4,1.63c-0.04,0.17,0.08,0.34,0.26,0.34h1.7c0.71,0,1.33-0.48,1.5-1.19l2.77-11.21
	c0.04-0.17-0.08-0.34-0.26-0.34H398.42z M448.32,72.55h6.07c0.25-0.97,0.54-2.15,0.86-3.41h-6.06L448.32,72.55z M449.71,67.15h6.06
	c0.24-0.93,0.48-1.87,0.71-2.78h-6.05L449.71,67.15z M446.76,64.57h1.39c0.25-0.99,0.49-1.95,0.71-2.81l-1.39,0L446.76,64.57z
	 M450.93,62.39h6.04l0.76-3h-6.03L450.93,62.39z M448.48,56.47c0.17,0,0.3,0.17,0.26,0.34l-0.72,2.8c0.48,0,0.95,0,1.39,0
	c0.14-0.54,0.37-1.46,0.49-1.92c0.04-0.17,0.19-0.29,0.37-0.29h9.87c0.17,0,0.3,0.17,0.26,0.34l-4.02,15.62
	c-0.18,0.7-0.79,1.17-1.5,1.17l-8.91,0c-0.17,0-0.3-0.17-0.26-0.34c0.37-1.46,1.12-4.44,1.89-7.46h-1.39l-2.01,7.89
	c-0.04,0.17-0.19,0.29-0.37,0.29h-1.55c-0.17,0-0.3-0.17-0.26-0.34c0.43-1.74,2.43-9.72,3.22-12.81l-4.62,0.01
	c-0.17,0-0.3-0.17-0.26-0.34l0.38-1.56c0.04-0.17,0.19-0.29,0.37-0.29c0.83,0,3.21,0.01,4.68,0.01c0.3-1.19,0.59-2.33,0.73-2.85
	c0.04-0.17,0.19-0.29,0.36-0.29H448.48z M466.26,67.85c-0.12,0-0.23,0.09-0.26,0.21l-0.29,1.18h-0.66l0.29-1.16
	c0.03-0.11-0.06-0.23-0.17-0.23h-1.23c-0.12,0-0.23,0.09-0.26,0.21l-0.29,1.18h-0.2c-0.12,0-0.23,0.08-0.26,0.2l-0.41,1.65
	c-0.03,0.11,0.06,0.23,0.17,0.23h1.18l-0.79,3.25c-0.04,0.17,0.09,0.34,0.26,0.34h1.44c0.17,0,0.32-0.12,0.37-0.29l0.82-3.3h1.14
	c0.12,0,0.23-0.08,0.26-0.2l0.41-1.64c0.04-0.12-0.05-0.24-0.17-0.24h-0.23l0.29-1.16c0.03-0.11-0.06-0.23-0.17-0.23H466.26z
	 M461.88,65.06c-0.17,0-0.33,0.12-0.37,0.3l-2.25,9.22c-0.04,0.17,0.08,0.34,0.26,0.34h1.45c0.17,0,0.32-0.12,0.37-0.29l1.85-7.48
	h5.46l-1.82,7.43c-0.04,0.17,0.08,0.34,0.26,0.34h1.45c0.17,0,0.32-0.12,0.37-0.29l2.29-9.22c0.04-0.17-0.08-0.34-0.26-0.34H461.88z
	 M473.5,68.05h0.94l1.83-7.41h-0.94L473.5,68.05z M476.56,68.05h0.95l1.81-7.41h-0.93L476.56,68.05z M479.04,56.63
	c0.17,0,0.3,0.17,0.26,0.34l-0.39,1.59h2.7c0.17,0,0.3,0.17,0.26,0.34l-2.49,10.08c-0.18,0.69-0.78,1.16-1.48,1.17h-1.84l-0.67,2.7
	h0.69c0.2,0,0.39-0.09,0.52-0.25c0.13-0.16,0.16-0.37,0.21-0.56c0.06-0.23,0.25-0.38,0.48-0.38h1.73l-0.31,1.24
	c-0.3,1.21-1.35,2.04-2.57,2.04h-6.11c-0.17,0-0.3-0.17-0.26-0.34l0.36-1.45c0.04-0.17,0.19-0.29,0.37-0.29h2.78l0.67-2.7h-2.69
	c-0.17,0-0.3-0.17-0.26-0.34l2.67-10.95c0.04-0.17,0.19-0.29,0.37-0.29h2.76l0.4-1.63c0.04-0.17,0.19-0.29,0.37-0.29H479.04z
	 M464.43,62.28h5.44l0.22-0.91h-5.43L464.43,62.28z M472.39,59.29c0.17,0,0.3,0.17,0.26,0.34l-0.9,3.6
	c-0.19,0.67-0.77,1.13-1.46,1.14h-8.14c-0.19,0-0.3-0.15-0.26-0.34l1.1-4.44c0.04-0.17,0.19-0.29,0.37-0.29H472.39z M495.74,66.89
	c0.04,1.04,0.45,2.3,1.67,2.3c1.37,0,2.08-1.38,2.41-2.55c0.38-1.34,0.72-4.06-1.26-4.25C496.37,62.17,495.68,65.22,495.74,66.89
	 M491.76,59.4c1.81-2.08,4.56-2.98,7.23-2.98c1.04,0,2.08,0.16,3.06,0.5c2.71,0.92,4.85,3.17,5.32,6.11
	c0.48,3.06-0.96,6.57-3.89,7.76c-0.95,0.39-2.53,0.74-3.45,0.11c-0.25-0.17-0.43-0.41-0.55-0.72c-0.72,0.68-1.56,1.02-2.5,1.02
	c-2.3,0-3.84-1.95-3.92-4.2c-0.1-3.01,1.76-6.58,5.05-6.6c1.63-0.01,2.75,0.89,3.07,1.36l0.22-0.93h1.44c0.7,0,0.98,0.54,0.72,1.56
	l-1.27,5.39c-0.04,0.24-0.3,1.21,0.17,1.21c2.05,0,3.12-3.45,3.07-5.03c-0.12-3.61-3.29-5.52-6.51-5.52c-2.79,0-5.33,1.12-6.68,3.72
	c-0.27,0.52-0.49,1.08-0.65,1.65c-0.82,2.95,0.09,6.5,2.73,8.17c3.23,2.05,7.64,1.72,11.16,0.81c2.66-0.69,5.19-2.21,6.61-4.67
	c0.07-0.12,0.19-0.19,0.32-0.19h1.87c0.18,0,0.31,0.19,0.25,0.36c-1.22,3.45-4.7,5.49-7.98,6.39c-4.94,1.36-12.93,1.57-15.92-3.65
	C488.71,67.5,489.05,62.5,491.76,59.4 M419.94,58.08c-0.17,0-0.32,0.12-0.37,0.29l-1.44,5.89c-0.34,1.28-0.66,2.55-1.79,3.34
	c-0.71,0.5-2.2,0.61-3.11,0.24c-0.97-0.39-1.54-1.26-1.96-2.19c-0.06-0.13-0.16-0.38-0.51-0.3c-0.25,0.06-1.42,0.39-1.57,0.44
	c-0.2,0.06-0.2,0.26-0.17,0.38c0.38,1.43,1.48,2.84,2.8,3.47c1.66,0.79,3.69,0.83,5.34,0.01c1.66-0.82,2.48-2.5,2.97-4.23
	c0.6-2.15,1.67-6.84,1.72-7.01c0.04-0.17-0.08-0.33-0.25-0.33H419.94z M423.98,58.08c-0.17,0-0.33,0.12-0.37,0.29l-4.02,16.21
	c-0.04,0.17,0.09,0.33,0.26,0.33l9.42,0c0.72,0,1.33-0.49,1.51-1.19l0.26-1.07h-8.68l3.52-14.24c0.04-0.17-0.08-0.34-0.26-0.34
	H423.98z M408.15,56.39c-0.17,0-0.33,0.12-0.37,0.29l-2.9,11.72c-0.04,0.17,0.08,0.34,0.26,0.34h1.66c0.17,0,0.33-0.12,0.37-0.29
	l2.9-11.72c0.04-0.17-0.08-0.34-0.26-0.34H408.15z M403.12,58.08c-0.17,0-0.33,0.12-0.37,0.29l-4.02,16.21
	c-0.04,0.17,0.09,0.33,0.26,0.33l9.42,0c0.72,0,1.33-0.49,1.51-1.19l0.26-1.07h-8.67l3.52-14.24c0.04-0.17-0.08-0.34-0.26-0.34
	H403.12z M441.96,62.48c-0.17,0-0.32,0.12-0.37,0.28l-2.34,8.68h-0.97c-0.17,0-0.33,0.12-0.37,0.29l-0.4,1.63
	c-0.04,0.17,0.08,0.34,0.26,0.34h2.01c0.71,0,1.33-0.48,1.5-1.19l2.59-9.69c0.05-0.17-0.08-0.34-0.26-0.34H441.96z M545.47,61.17
	c-0.17,0-0.33,0.12-0.37,0.29l-0.65,2.63c-0.04,0.17,0.08,0.34,0.26,0.34c0.04,0,0.44,0,0.6,0c0.71-0.01,1.32-0.49,1.49-1.19
	l0.23-0.91l0.2-0.82c0.04-0.17-0.08-0.34-0.26-0.34H545.47z M535.01,61.17c-0.17,0-0.32,0.12-0.37,0.29l-0.65,2.63
	c-0.04,0.17,0.09,0.34,0.26,0.34c0.04,0,0.44,0,0.6,0c0.71-0.01,1.32-0.49,1.49-1.19l0.23-0.91l0.2-0.82
	c0.04-0.17-0.08-0.34-0.26-0.34H535.01z M463.94,56.49c-0.17,0-0.33,0.12-0.37,0.29l-0.36,1.45c-0.04,0.17,0.08,0.34,0.26,0.34h8.13
	c0.71,0,1.33-0.48,1.5-1.19l0.22-0.9H463.94z"/>
</svg>
