<?xml version="1.0" standalone="no"?><!DOCTYPE svg PUBLIC "-//W3C//DTD SVG 1.1//EN" "http://www.w3.org/Graphics/SVG/1.1/DTD/svg11.dtd"><svg t="1689765099489" class="icon" viewBox="0 0 1024 1024" version="1.1" xmlns="http://www.w3.org/2000/svg" p-id="4720" id="mx_n_1689765099490" xmlns:xlink="http://www.w3.org/1999/xlink" width="200" height="200"><path d="M880.941893 669.817562a160.252133 160.252133 0 0 1-45.404771 40.508178 398.478799 398.478799 0 0 1-93.925556 39.321125c-2.81925 0.89029-5.786883 1.187053-10.23833 2.225724a27.287377 27.287377 0 0 1 13.799489-11.277002 268.971334 268.971334 0 0 0 89.622489-70.184499 71.416066 71.416066 0 0 0 17.509029-59.797787 65.139524 65.139524 0 0 0-83.538843-45.998297c-3.857922 1.038671-7.715843 2.077342-13.057581 3.561159a13.977547 13.977547 0 0 1 7.715843-9.348041c31.4569-17.360648 92.44174-17.212266 121.227771 23.444293a71.95024 71.95024 0 0 1-3.70954 87.545147z m-282.518575-362.051115a108.392762 108.392762 0 0 0-26.411925 52.675469 42.941636 42.941636 0 0 0 6.52879 22.999149A256.700176 256.700176 0 0 0 615.932347 443.387233a71.490257 71.490257 0 0 1 14.096253 63.655709 129.492626 129.492626 0 0 1-57.275299 69.739354c-2.225724 1.483816-5.935264 5.044975-8.902897 2.077342-3.561159-3.412777 1.187053-5.786883 2.670869-8.160988a65.881432 65.881432 0 0 0-6.677172-87.396765 229.041845 229.041845 0 0 1-28.786031-40.65656 111.671996 111.671996 0 0 1 20.32828-142.001195 361.902733 361.902733 0 0 1 124.492166-76.564908 512.376518 512.376518 0 0 1 52.527088-18.399319 10.549932 10.549932 0 0 1 9.051278 0c-24.186202 15.580068-47.630495 30.269847-70.629644 45.404771a374.559684 374.559684 0 0 0-68.40392 56.681773z m-86.06133-44.3661a335.950791 335.950791 0 0 0-54.010904 52.67547 111.864892 111.864892 0 0 0-10.386713 136.065931c15.283305 26.708689 34.869677 50.598127 50.746509 76.861671 3.70954 6.083646 13.057581 12.464055 7.864225 19.141227-2.225724 2.670869-10.831857-7.567462-16.025213-12.464055a548.136485 548.136485 0 0 1-91.699832-100.899491c-16.61874-25.818399-28.63765-52.972233-22.405622-84.577514a104.430973 104.430973 0 0 1 21.960477-42.585521c34.572914-45.701534 83.390462-75.377855 126.272746-111.582966a379.649173 379.649173 0 0 0 68.255538-69.739354A155.221996 155.221996 0 0 0 620.383796 8.480751c-0.593526-3.116014-2.225724-6.677172 1.92896-8.160989s5.638501 2.522487 7.122317 5.341738a120.367158 120.367158 0 0 1 15.728451 59.20426 177.761162 177.761162 0 0 1-31.605282 94.519082 451.881338 451.881338 0 0 1-101.196254 104.015505z m-127.163035 296.763209c-26.411926 8.457751-50.89489 16.173595-75.229474 24.334583a55.153442 55.153442 0 0 0-20.625043 13.651108c-5.193356 5.193356-1.928961 9.348041 3.561159 12.01891a101.403988 101.403988 0 0 0 37.837309 8.754514c50.152982 5.044975 100.305965 3.412777 150.607328 3.561159 20.476661 0.148382 41.250086-1.187053 60.98484-2.670869 33.089098-2.670869 66.62334-5.490119 99.564056-10.535094 23.592675-3.561159 47.18535-6.825554 70.778026-10.089949 4.154685-0.445145 8.606133 0 14.689778 0a228.507671 228.507671 0 0 1-97.783477 35.16644c-37.985691 5.638501-76.268145 10.238331-114.69898 12.464055a1118.797298 1118.797298 0 0 1-260.706479-9.793186 119.373001 119.373001 0 0 1-27.74736-8.160988 19.20058 19.20058 0 0 1-15.876832-13.799489 18.562539 18.562539 0 0 1 14.541397-16.321977 274.075662 274.075662 0 0 1 51.340035-21.515333 302.312681 302.312681 0 0 1 102.680071-18.102555 50.301364 50.301364 0 0 1 6.083646 1.038671z m-4.451449 254.622833a392.409991 392.409991 0 0 0 61.875129 8.160988 621.140234 621.140234 0 0 0 170.638846-11.573765 12.656951 12.656951 0 0 1 11.722146 1.483816 196.204996 196.204996 0 0 0 43.772574 21.366951c2.225724 1.038671 4.59983 2.225724 9.199659 4.451448a386.281831 386.281831 0 0 1-93.035266 27.747361 469.61294 469.61294 0 0 1-203.727943-5.044975 139.478708 139.478708 0 0 1-44.514481-19.734753c-17.063885-11.870528-16.767121-27.005452 0.89029-37.688928a48.609814 48.609814 0 0 1 22.108859-9.644804c2.522487-0.148382 7.41908-1.483816 6.083645 3.412777-3.412777 13.205963 6.973935 14.83816 14.986542 17.063884z m-24.631346-102.976833a540.524509 540.524509 0 0 0 92.886884 8.30937 758.838363 758.838363 0 0 0 187.70273-16.025214c19.586372-4.006303 28.489268 8.606133 41.250086 15.876832 3.116014 1.928961 10.831857 3.412777 9.496423 8.754515a14.749131 14.749131 0 0 1-13.502726 5.935264 813.591175 813.591175 0 0 1-177.612781 24.928109 550.881545 550.881545 0 0 1-148.826749-12.167291 124.492166 124.492166 0 0 1-42.733902-16.61874 18.339966 18.339966 0 0 1-1.632198-33.237479 88.094159 88.094159 0 0 1 40.359797-17.954174 10.549932 10.549932 0 0 1-0.445145 3.116013c-9.941567 17.509029-6.973935 24.631346 13.057581 29.082795z m-68.255538 158.471553a249.281095 249.281095 0 0 0-58.759115 12.760818 112.265522 112.265522 0 0 0-27.74736 13.651108c-10.535094 7.567462-10.089949 14.096252 1.92896 19.141227a280.960568 280.960568 0 0 0 67.662012 17.805792c31.308519 5.044975 62.9138 7.122317 94.519082 9.19966 58.610734 3.857922 117.369849 3.116014 176.277346 1.780579 22.554004-0.445145 45.108008-2.522487 67.662012-3.70954a1038.166734 1038.166734 0 0 0 167.226068-20.476661 115.871195 115.871195 0 0 0 48.520785-16.470359c9.199659-7.270699 16.321976-14.244634 9.496422-28.192504a19.868297 19.868297 0 0 1 16.61874 13.057581 14.60075 14.60075 0 0 1-5.638501 15.431687 139.834824 139.834824 0 0 1-67.810393 34.127769 1009.707142 1009.707142 0 0 1-227.765763 33.979387 1740.249133 1740.249133 0 0 1-262.338677-6.52879 1220.275477 1220.275477 0 0 1-129.240377-18.399319 61.044192 61.044192 0 0 1-22.702386-8.902897 16.040051 16.040051 0 0 1-3.857921-27.005452A74.665623 74.665623 0 0 1 155.949374 893.725403a275.737536 275.737536 0 0 1 107.725045-30.418229 30.180818 30.180818 0 0 1 24.186201 6.973935z m8.606133 125.975982a1459.763386 1459.763386 0 0 0 249.429477 9.051278c31.753663-1.187053 63.210563-3.412777 94.815845-6.52879a937.445301 937.445301 0 0 0 177.612781-32.198808 202.718948 202.718948 0 0 0 78.790632-38.134073 59.263613 59.263613 0 0 1-33.23748 41.695231 309.123397 309.123397 0 0 1-103.125215 34.572914 1236.46391 1236.46391 0 0 1-206.695575 18.844464 1569.75867 1569.75867 0 0 1-194.083138-7.419081 484.881407 484.881407 0 0 1-79.680922-15.580068 29.409234 29.409234 0 0 1-4.303066-2.819251 28.281534 28.281534 0 0 1 20.476661-1.483816z" fill="#00f8df" p-id="4721"></path></svg>