<?xml version="1.0" standalone="no"?><!DOCTYPE svg PUBLIC "-//W3C//DTD SVG 1.1//EN" "http://www.w3.org/Graphics/SVG/1.1/DTD/svg11.dtd"><svg t="1699931139744" class="icon" viewBox="0 0 1024 1024" version="1.1" xmlns="http://www.w3.org/2000/svg" p-id="4303" xmlns:xlink="http://www.w3.org/1999/xlink" width="200" height="200"><path d="M701.656 420.8c-147.624 0-267.312 119.68-267.312 267.312s119.68 267.304 267.312 267.304 267.304-119.68 267.304-267.304S849.28 420.8 701.656 420.8z m84.376 309.432h-14.088v-56.2h14.088a42.264 42.264 0 0 0 42.232-42.248c0-23.248-18.872-42.232-42.232-42.232s-42.248 18.872-42.248 42.232v140.592c0 54.184-44.264 98.456-98.456 98.456-54.176 0-98.456-44.264-98.456-98.456S591.152 673.92 645.328 673.92h14.088v56.208h-14.088c-23.248 0-42.232 18.88-42.232 42.24s18.872 42.232 42.232 42.232 42.248-18.872 42.248-42.232V631.784c0-54.176 44.264-98.456 98.456-98.456s98.456 44.272 98.456 98.456c0 54.184-44.272 98.448-98.456 98.448z" fill="#00f8df" p-id="4304"></path><path d="M823.824 358.16c10.952 2.104 21.736 4.68 32.248 7.792-28.44-160.072-186.152-287.92-376.136-302.12-217.344-16.24-406.928 123.384-421.096 313.04-8.216 109.952 42.776 207.256 136.904 284.472L147.44 779.056l143.84-59.288c16.032 5.64 32.352 10.36 48.768 14.648C421.92 291.872 704.064 323.144 823.824 358.16z m-283.6-82.72c2.312-32.488 30.64-56.864 63.232-54.432a59.008 59.008 0 0 1-8.784 117.664 59.016 59.016 0 0 1-54.448-63.232z m-265.008-19.688a58.992 58.992 0 0 1 117.656 8.792c-2.312 32.376-30.744 56.856-63.224 54.432a59 59 0 0 1-54.432-63.224z" fill="#00f8df" p-id="4305"></path></svg>